<?xml version="1.0" encoding="UTF-8"?>
<svg id="Capa_2" data-name="Capa 2" xmlns="http://www.w3.org/2000/svg" viewBox="0 0 763.97 163.1">
  <defs>
    <style>
      .cls-1 {
        fill: #f5f5f5;
      }
    </style>
  </defs>
  <g id="concep4">
    <g>
      <path class="cls-1" d="M0,103.82c0-15.65,11.35-25.46,31.48-27l25.46-1.89v-1.89c0-11.52-6.88-16.17-17.54-16.17-12.38,0-19.26,5.16-19.26,14.1H2.24c0-18.4,15.14-30.44,38.18-30.44s36.98,12.38,36.98,35.95v51.6h-18.4l-1.55-12.56c-3.61,8.77-15.14,14.79-28.38,14.79-18.06,0-29.07-10.49-29.07-26.49Zm57.1-10.15v-4.47l-17.72,1.38c-13.07,1.2-18.06,5.5-18.06,12.38,0,7.74,5.16,11.52,14.62,11.52,12.9,0,21.16-7.74,21.16-20.81Z"/>
      <path class="cls-1" d="M154.38,62.1l-7.33,.09c-15.14,0-24.6,8.08-24.6,24.6v41.28h-20.98V43.27h19.78l1.2,12.38c6.93-8.56,15.93-10.56,15.93-10.56,0,0,8-2,16-2v19Z"/>
      <path class="cls-1" d="M180.38,163.1V62.1h-27v-19h27.03V16.61h20.98v26.49h16.51l.47,19h-17l.02,65.97-21.02,35.03Z"/>
      <path class="cls-1" d="M226.54,85.59c0-26.66,17.37-45.06,42.31-45.06s41.62,17.03,41.62,43.52v6.36l-63.98,.17c1.55,14.96,9.46,22.53,23.39,22.53,11.52,0,19.09-4.47,21.5-12.56h19.44c-3.61,18.58-19.09,29.75-41.28,29.75-25.28,0-43-18.4-43-44.72Zm20.47-8.43h42.66c0-11.7-8.08-19.44-20.64-19.44s-19.95,6.71-22.02,19.44Z"/>
      <path class="cls-1" d="M332.28,43.1v-10.32C332.28,9.73,344.49,.1,362.89,.1c3.27,0,7.22,.17,10.84,.86V18.85h-7.4c-10.66,0-13.24,5.5-13.24,13.93v10.32h20.3v17.54h-20.3v67.42h-20.81V60.65h-12.21v-17.54h12.21Z"/>
      <path class="cls-1" d="M382.98,103.82c0-15.65,11.35-25.46,31.48-27l25.46-1.89v-1.89c0-11.52-6.88-16.17-17.54-16.17-12.38,0-19.26,5.16-19.26,14.1h-17.89c0-18.4,15.14-30.44,38.18-30.44s36.98,12.38,36.98,35.95v51.6h-18.4l-1.55-12.56c-3.61,8.77-15.14,14.79-28.38,14.79-18.06,0-29.07-10.49-29.07-26.49Zm57.1-10.15v-4.47l-17.71,1.38c-13.07,1.2-18.06,5.5-18.06,12.38,0,7.74,5.16,11.52,14.62,11.52,12.9,0,21.16-7.74,21.16-20.81Z"/>
      <path class="cls-1" d="M481.38,127.97V0h20.81V78.6l33.02-35.6h26.32l-32.33,33.71,31.65,51.25h-24.08l-22.19-35.78-12.38,12.9v22.88h-20.81Z"/>
      <path class="cls-1" d="M591.2,126.97V59.54h-16.34v-17.54h16.34V15.51h20.98v26.49h16.51v17.54h-16.51V126.97h-20.98Z"/>
      <path class="cls-1" d="M718.56,37.53c26.32,0,45.41,18.23,45.41,44.72s-19.09,44.72-45.41,44.72-45.41-18.23-45.41-44.72,19.09-44.72,45.41-44.72Zm0,70.69c14.45,0,24.42-10.49,24.42-25.97s-9.98-25.97-24.42-25.97-24.42,10.49-24.42,25.97,9.98,25.97,24.42,25.97Z"/>
      <path class="cls-1" d="M632.88,113.38c0-7.57,6.36-13.76,13.93-13.76s13.93,6.19,13.93,13.76-6.36,13.59-13.93,13.59-13.93-6.19-13.93-13.59Z"/>
    </g>
  </g>
</svg>